<svg xmlns="http://www.w3.org/2000/svg" version="1.1" xmlns:xlink="http://www.w3.org/1999/xlink" xmlns:svgjs="http://svgjs.dev/svgjs" width="2000" height="3829" viewBox="0 0 2000 3829"><g transform="matrix(1,0,0,1,2.59880228396446,1.5502024291497492)"><svg viewBox="0 0 129 247" data-background-color="#18181b" preserveAspectRatio="xMidYMid meet" height="3829" width="2000" xmlns="http://www.w3.org/2000/svg" xmlns:xlink="http://www.w3.org/1999/xlink"><g id="tight-bounds" transform="matrix(1,0,0,1,-0.16762274731570415,-0.09999999999999432)"><svg viewBox="0 0 129.33524549463144 247.2" height="247.2" width="129.33524549463144"><g><svg viewBox="0 0 350.7295392631579 670.3535588792884" height="247.2" width="129.33524549463144"><g transform="matrix(1,0,0,1,0,271.0957800140179)"><svg viewBox="0 0 350.7295392631579 399.2577788652704" height="399.2577788652704" width="350.7295392631579"><g id="textblocktransform"><svg viewBox="0 0 350.7295392631579 399.2577788652704" height="399.2577788652704" width="350.7295392631579" id="textblock"><g><svg viewBox="0 0 350.7295392631579 245.672304" height="245.672304" width="350.7295392631579"><g transform="matrix(1,0,0,1,0,0)"><svg width="350.7295392631579" viewBox="0.42 -31.25 45.199999999999996 31.67" height="245.672304" data-palette-color="#919591"><g class="wordmark-text-0" data-fill-palette-color="primary" id="text-0"><path d="M6.53 0.42L6.53 0.42Q4.86 0.42 3.23-0.1 1.6-0.63 0.42-1.88L0.42-1.88 1.56-6.04Q2.36-4.69 3.63-3.91 4.9-3.13 6.49-3.13L6.49-3.13Q8.33-3.13 9.69-4.41 11.04-5.69 11.04-8.89L11.04-8.89 11.04-31.25 15-31.25 15-8.58Q15-5.49 13.82-3.49 12.64-1.49 10.71-0.54 8.78 0.42 6.53 0.42ZM45.62 0L40.8 0 27.5-19.27 38.19-31.25 42.84-31.25 32.22-19.31 45.62 0ZM27.08 0L23.12 0 23.12-31.25 27.08-31.25 27.08 0Z" fill="#919591" data-fill-palette-color="primary"></path></g></svg></g></svg></g><g transform="matrix(1,0,0,1,66.98934199926316,303.669638839104)"><svg viewBox="0 0 216.75085526463158 95.58814002616637" height="95.58814002616637" width="216.75085526463158"><g transform="matrix(1,0,0,1,0,0)"><svg width="216.75085526463158" viewBox="-5.5 -46.45 171.18 75.5" height="95.58814002616637" data-palette-color="#636365"><path d="M29-37L29-37Q27.1-36.05 23.28-30 19.45-23.95 16.6-18.4L16.6-18.4 13.7-12.8Q6.7 1 3.75 4.5L3.75 4.5Q-0.7 9.65-4.35 9.65L-4.35 9.65Q-5.5 9.65-5.5 9.25L-5.5 9.25Q-5.5 9.1-5.3 8.88-5.1 8.65-4.9 8.5L-4.9 8.5-4.75 8.4Q-2.55 6.75 1.07 1.13 4.7-4.5 7.2-9.3L7.2-9.3 9.7-14.05Q12.65-19.5 15.38-23.8 18.1-28.1 19.85-30.35 21.6-32.6 22.93-34.08 24.25-35.55 24.85-35.95L24.85-35.95 25.45-36.35Q25.6-36.5 25.6-36.65L25.6-36.65Q25.6-37.15 24-37.15L24-37.15Q22.5-37.15 21.03-36.33 19.55-35.5 18.53-34.35 17.5-33.2 16.7-32.05 15.9-30.9 15.5-30.1L15.5-30.1 15.1-29.25Q14.85-28.45 14.5-28.45L14.5-28.45Q13.65-28.45 13.65-30.65L13.65-30.65Q13.65-34.45 16.95-36.48 20.25-38.5 25.1-38.5L25.1-38.5Q29.8-38.5 29.8-37.65L29.8-37.65Q29.8-37.35 29-37ZM32.2-7.55L32.2-7.55Q34.3-9.65 37.75-13.6L37.75-13.6Q37.9-13.75 38-13.75 38.1-13.75 38.1-13.55L38.1-13.55Q38.1-12.6 37.35-11.7L37.35-11.7Q33.65-7.6 30.8-4.85L30.8-4.85Q30.55-4.6 29.87-3.93 29.2-3.25 28.8-2.88 28.4-2.5 27.75-1.88 27.1-1.25 26.65-0.9 26.2-0.55 25.67-0.18 25.15 0.2 24.72 0.38 24.3 0.55 24 0.55L24 0.55Q23.1 0.55 23.1-1.1L23.1-1.1Q23.1-2.9 23.87-5.7 24.65-8.5 25.45-10.4L25.45-10.4 26.2-12.3Q26.25-12.4 26.25-12.5 26.25-12.6 26.15-12.6L26.15-12.6 25.85-12.5Q23.95-10.6 21.92-8.22 19.9-5.85 18.85-4.45L18.85-4.45 17.8-3.05Q16.8-1.5 15.47-0.35 14.15 0.8 13.45 0.8L13.45 0.8Q12.95 0.8 12.95 0.15L12.95 0.15Q12.95-0.8 13.85-2.85 14.75-4.9 15.65-6.5L15.65-6.5 16.55-8.1 23.85-21.15Q33.7-38.65 38.2-44.35L38.2-44.35Q39.7-46.3 40.3-46.3L40.3-46.3Q40.55-46.3 40.55-45.9L40.55-45.9Q40.55-44.8 38.95-41.6L38.95-41.6Q31.1-27.4 28.05-21.95L28.05-21.95Q22.1-11.3 20.9-9.3L20.9-9.3 20.9-9.1Q20.9-8.95 21-8.95 21.1-8.95 21.3-9.15L21.3-9.15 23.65-11.7Q26.05-14.25 28-16.2 29.95-18.15 32.35-20.03 34.75-21.9 35.9-21.9L35.9-21.9Q36.7-21.9 36.7-20.7L36.7-20.7Q36.7-20 36.2-18.55 35.7-17.1 35.2-17.1L35.2-17.1Q35-17.1 34.85-17.6L34.85-17.6Q34.6-18.85 33.4-18.85L33.4-18.85Q31.7-18.85 30.25-15.63 28.8-12.4 28.2-9.38 27.6-6.35 27.6-5.3L27.6-5.3Q27.6-4.2 28.15-4.2L28.15-4.2Q28.6-4.2 29.32-4.78 30.05-5.35 31.02-6.35 32-7.35 32.2-7.55ZM63.44-16.35L63.44-16.35Q63.84-16.35 64.22-15.58 64.59-14.8 64.59-14.1L64.59-14.1Q64.59-13.5 64.42-12.9 64.24-12.3 64.09-12L64.09-12 63.89-11.65Q61.44-6.9 56.62-2.9 51.79 1.1 46.94 1.1L46.94 1.1Q44.39 1.1 43.19-0.73 41.99-2.55 41.99-5.4L41.99-5.4Q41.99-10.4 44.87-15.63 47.74-20.85 52.14-25.15L52.14-25.15Q50.24-25.35 48.59-26.6 46.94-27.85 46.94-29.65L46.94-29.65Q46.94-32.4 51.44-35.1 55.94-37.8 62.59-37.8L62.59-37.8Q64.69-37.8 67.92-37.27 71.14-36.75 72.89-36.75L72.89-36.75Q75.69-36.75 76.89-37.65L76.89-37.65Q77.09-37.7 77.24-37.7L77.24-37.7Q77.49-37.7 77.49-37.5 77.49-37.3 77.29-36.95L77.29-36.95Q76.29-35.35 74.59-34.35 72.89-33.35 70.84-33.35L70.84-33.35Q68.64-33.35 64.37-34.5 60.09-35.65 57.74-35.65L57.74-35.65Q55.09-35.65 52.69-34.15 50.29-32.65 50.29-30.05L50.29-30.05Q50.29-28.95 50.89-27.9 51.49-26.85 52.09-26.35L52.09-26.35 52.69-25.85 52.79-25.75Q58.64-31.3 63.29-32.35L63.29-32.35Q63.54-32.4 63.89-32.4L63.89-32.4Q64.39-32.4 64.39-32.1L64.39-32.1Q64.39-31.7 63.64-31.4L63.64-31.4Q62.24-30.85 59.64-28.55 57.04-26.25 54.14-22.88 51.24-19.5 49.12-14.83 46.99-10.15 46.99-5.8L46.99-5.8Q46.99-1.35 50.04-1.35L50.04-1.35Q52.24-1.35 54.37-2.78 56.49-4.2 58.12-6.5 59.74-8.8 60.94-11.15 62.14-13.5 62.94-15.9L62.94-15.9Q63.09-16.35 63.44-16.35ZM74.59-10.35L74.59-10.35Q74.19-10.35 74.19-10.65L74.19-10.65Q74.19-10.8 74.34-11.05L74.34-11.05Q77.29-15.65 77.29-17.35L77.29-17.35Q77.29-17.8 76.94-17.8L76.94-17.8Q75.44-17.8 69.89-11L69.89-11Q68.24-8.9 66.82-6.65 65.39-4.4 64.84-3.2L64.84-3.2 64.24-2.05Q63.64-0.85 62.39 0.18 61.14 1.2 59.79 1.2L59.79 1.2Q59.09 1.2 59.09 0.85L59.09 0.85Q59.09 0.55 59.52-0.4 59.94-1.35 60.54-2.5 61.14-3.65 61.74-4.75 62.34-5.85 62.74-6.6L62.74-6.6 63.19-7.35 68.44-16.5Q71.49-22.25 74.84-22.25L74.84-22.25Q75.29-22.25 75.29-21.9L75.29-21.9Q75.29-21.45 73.12-18.18 70.94-14.9 70.59-14L70.59-14Q70.49-13.7 70.49-13.65L70.49-13.65Q70.49-13.55 70.59-13.55 70.69-13.55 70.94-13.8L70.94-13.8Q74.69-18.05 78.89-21.35L78.89-21.35Q79.14-21.6 79.99-22.08 80.84-22.55 81.49-22.55L81.49-22.55Q82.44-22.55 82.44-20.9L82.44-20.9Q82.44-19.1 81.24-16.6 80.04-14.1 77.99-12.2L77.99-12.2 77.79-12Q77.59-11.85 77.37-11.68 77.14-11.5 76.79-11.25 76.44-11 76.09-10.83 75.74-10.65 75.34-10.5 74.94-10.35 74.59-10.35ZM91.19-3.15L91.19-3.15Q87.04 0.65 85.49 0.65L85.49 0.65Q84.79 0.65 84.79-0.15L84.79-0.15Q84.79-1.15 85.66-3.2 86.54-5.25 87.44-6.8L87.44-6.8 88.34-8.35Q88.54-8.7 88.54-8.8 88.54-8.9 88.44-8.9L88.44-8.9Q88.24-8.9 87.69-8.35L87.69-8.35Q86.19-6.7 84.26-4.83 82.34-2.95 81.14-1.9L81.14-1.9 79.99-0.9Q78.04 0.6 76.99 0.6L76.99 0.6Q75.89 0.6 75.89-1.1L75.89-1.1Q75.89-1.95 76.36-3.7 76.84-5.45 77.09-6.05L77.09-6.05Q78.24-8.85 79.96-11.5 81.69-14.15 84.04-16.57 86.39-19 89.51-20.5 92.64-22 95.99-22L95.99-22Q98.79-22 98.79-21.15L98.79-21.15Q98.79-20.65 97.54-20.65L97.54-20.65Q92.94-20.65 88.91-16.73 84.89-12.8 82.39-7.7L82.39-7.7Q81.69-6.3 81.69-5.35L81.69-5.35Q81.69-4.8 82.04-4.8L82.04-4.8Q82.64-4.8 83.59-5.65L83.59-5.65Q84.19-6.2 85.21-7.1 86.24-8 88.54-10.55 90.84-13.1 92.19-15.3L92.19-15.3Q92.39-15.7 92.81-16.25 93.24-16.8 94.44-17.73 95.64-18.65 96.84-18.65L96.84-18.65Q97.49-18.65 97.49-18.3L97.49-18.3Q97.49-18.2 97.34-17.95L97.34-17.95Q97.14-17.55 96.21-15.95 95.29-14.35 94.49-12.93 93.69-11.5 92.79-9.83 91.89-8.15 91.36-6.95 90.84-5.75 90.84-5.35L90.84-5.35Q90.84-5.05 91.09-5.05L91.09-5.05Q91.84-5.05 94.74-7.95L94.74-7.95Q96.94-10.25 99.89-13.6L99.89-13.6Q100.04-13.75 100.14-13.75 100.24-13.75 100.24-13.55L100.24-13.55Q100.24-12.6 99.49-11.7L99.49-11.7Q94.59-6.25 91.19-3.15ZM101.84-5.35L101.84-5.35Q102.14-5.6 102.66-6.08 103.19-6.55 104.69-8.08 106.19-9.6 107.56-11.23 108.94-12.85 110.61-15.25 112.29-17.65 113.49-20L113.49-20Q113.54-20.1 113.54-20.2L113.54-20.2 113.49-20.35Q113.14-20.55 112.69-20.55L112.69-20.55Q110.54-20.55 107.36-17.35 104.19-14.15 101.96-10.48 99.74-6.8 99.74-5.2L99.74-5.2Q99.74-4.5 100.29-4.5L100.29-4.5Q100.89-4.5 101.84-5.35ZM112.89-7.55L112.89-7.55Q114.99-9.65 118.44-13.6L118.44-13.6Q118.59-13.75 118.69-13.75 118.79-13.75 118.79-13.55L118.79-13.55Q118.79-12.6 118.04-11.7L118.04-11.7Q114.34-7.6 111.49-4.85L111.49-4.85Q105.59 0.65 103.74 0.65L103.74 0.65Q103.04 0.65 103.04-0.1L103.04-0.1Q103.04-1.05 103.99-3.1 104.94-5.15 105.94-6.75L105.94-6.75 106.89-8.35Q107.09-8.6 107.09-8.8L107.09-8.8Q107.09-8.9 106.99-8.9L106.99-8.9Q106.79-8.9 106.44-8.55L106.44-8.55Q104.89-6.75 102.89-4.85 100.89-2.95 99.64-1.9L99.64-1.9 98.44-0.9Q96.44 0.65 95.44 0.65L95.44 0.65 95.24 0.6Q94.39 0.55 94.39-0.9L94.39-0.9Q94.39-4.7 97.06-9.58 99.74-14.45 103.99-18.05 108.24-21.65 112.19-21.65L112.19-21.65Q112.59-21.65 112.94-21.58 113.29-21.5 113.46-21.45 113.64-21.4 113.79-21.3L113.79-21.3 113.94-21.25Q114.04-21.25 114.19-21.4L114.19-21.4Q123.44-38.1 128.39-44.45L128.39-44.45Q129.89-46.45 130.54-46.45L130.54-46.45Q130.79-46.45 130.79-46.05L130.79-46.05Q130.79-45 129.19-41.75L129.19-41.75Q121.49-27.65 118.39-22.2L118.39-22.2Q112.84-12.3 111.64-10.3L111.64-10.3Q109.19-6.1 109.19-5.2L109.19-5.2Q109.19-4.85 109.49-4.85L109.49-4.85Q109.74-4.85 110.06-5.03 110.39-5.2 110.79-5.55 111.19-5.9 111.51-6.2 111.84-6.5 112.29-6.95 112.74-7.4 112.89-7.55ZM120.58-4.85L120.58-4.85Q114.73 0.65 113.08 0.65L113.08 0.65Q112.23 0.65 112.23-0.5 112.23-1.65 113.13-3.85 114.03-6.05 114.93-7.7L114.93-7.7 115.83-9.3Q119.63-15.95 121.58-18.85L121.58-18.85Q122.43-20.1 123.76-20.98 125.08-21.85 126.23-21.85L126.23-21.85Q126.63-21.85 126.63-21.5L126.63-21.5Q126.63-21.25 126.28-20.55L126.28-20.55Q125.68-19.45 123.33-15.3 120.98-11.15 120.53-10.3L120.53-10.3Q118.48-6.7 118.48-5.5L118.48-5.5Q118.48-5.05 118.78-5.05L118.78-5.05Q119.28-5.05 121.98-7.55L121.98-7.55Q124.08-9.65 127.53-13.6L127.53-13.6Q127.68-13.75 127.78-13.75 127.88-13.75 127.88-13.55L127.88-13.55Q127.88-12.6 127.13-11.7L127.13-11.7Q123.43-7.6 120.58-4.85ZM127.23-24.7L127.23-24.7Q125.98-24.7 125.98-26.2L125.98-26.2Q125.98-27.6 127.03-29.03 128.08-30.45 129.33-30.45L129.33-30.45Q130.83-30.45 130.83-28.75L130.83-28.75Q130.83-27.35 129.68-26.03 128.53-24.7 127.23-24.7ZM139.53-4.85L139.53-4.85Q133.68 0.65 131.83 0.65L131.83 0.65Q130.98 0.65 130.98-0.25L130.98-0.25Q130.98-0.8 131.23-1.63 131.48-2.45 131.86-3.28 132.23-4.1 132.58-4.8 132.93-5.5 133.28-6.1 133.63-6.7 133.63-6.75L133.63-6.75Q134.38-8.1 135.88-10.53 137.38-12.95 138.28-14.53 139.18-16.1 139.18-16.45L139.18-16.45Q139.18-16.7 138.93-16.7L138.93-16.7 138.23-16.45Q135.93-14.8 132.73-11.33 129.53-7.85 127.48-5.2L127.48-5.2 125.43-2.6Q124.78-1.65 124.28-1.05 123.78-0.45 122.86 0.13 121.93 0.7 120.98 0.7L120.98 0.7Q120.28 0.7 120.28 0.3 120.28-0.1 121.23-2.02 122.18-3.95 123.13-5.7L123.13-5.7 124.08-7.4 128.98-16Q129.73-17.25 130.21-17.93 130.68-18.6 131.53-19.63 132.38-20.65 133.36-21.15 134.33-21.65 135.43-21.75L135.43-21.75Q135.83-21.75 135.83-21.4L135.83-21.4Q135.83-21.1 135.68-20.9L135.68-20.9Q134.53-19.1 132.16-14.95 129.78-10.8 129.13-9.55L129.13-9.55Q128.98-9.25 128.98-9.1L128.98-9.1Q128.98-9 129.08-9 129.18-9 129.58-9.3L129.58-9.3Q130.53-10.4 132.06-12.05 133.58-13.7 137.23-17.03 140.88-20.35 143.23-21.5L143.23-21.5Q143.78-21.75 144.28-21.75L144.28-21.75Q144.98-21.75 144.98-20.95L144.98-20.95Q144.58-18.6 141.13-12.9L141.13-12.9Q137.33-6.65 137.33-5.5L137.33-5.5Q137.33-5.1 137.68-5.1L137.68-5.1Q137.93-5.1 138.26-5.28 138.58-5.45 138.98-5.78 139.38-6.1 139.66-6.35 139.93-6.6 140.38-7.03 140.83-7.45 140.93-7.55L140.93-7.55Q143.03-9.65 146.48-13.6L146.48-13.6Q146.63-13.75 146.73-13.75 146.83-13.75 146.83-13.55L146.83-13.55Q146.83-12.6 146.08-11.7L146.08-11.7Q142.38-7.6 139.53-4.85ZM148.43 1.45L153.48-8.35Q153.68-8.75 153.68-8.9L153.68-8.9 153.18-8.55Q151.63-6.75 149.6-4.85 147.58-2.95 146.33-1.9L146.33-1.9 145.08-0.9Q143.03 0.6 141.98 0.6L141.98 0.6Q140.98 0.6 140.98-0.85L140.98-0.85Q140.98-4.45 143.63-9.35 146.28-14.25 150.5-17.95 154.73-21.65 158.53-21.65L158.53-21.65Q159.28-21.65 159.8-21.48 160.33-21.3 160.55-21.15 160.78-21 160.83-21L160.83-21Q160.93-21 161.08-21.15L161.08-21.15Q161.38-21.55 161.85-22.15 162.33-22.75 163.48-23.78 164.63-24.8 165.33-24.8L165.33-24.8Q165.68-24.8 165.68-24.3L165.68-24.3Q165.68-23.6 164.98-22.2L164.98-22.2Q159.63-12.35 158.48-10.3L158.48-10.3Q158.08-9.55 156.65-7.08 155.23-4.6 154.63-3.55L154.63-3.55Q157.78-6.1 159.83-7.95L159.83-7.95Q162.03-10.25 164.98-13.6L164.98-13.6Q165.13-13.75 165.23-13.75 165.33-13.75 165.33-13.55L165.33-13.55Q165.33-12.6 164.58-11.7L164.58-11.7Q162.38-9.3 160.78-7.6L160.78-7.6Q158.68-5.4 153.28-1.2L153.28-1.2 151.98 1.2Q142.33 18.95 138.68 24.3L138.68 24.3Q138.33 24.85 137.78 25.63 137.23 26.4 135.98 27.73 134.73 29.05 133.98 29.05L133.98 29.05Q132.78 29.05 132.78 25.6L132.78 25.6Q132.78 20.5 136.43 14.5L136.43 14.5Q140.28 8.15 148.43 1.45L148.43 1.45ZM160.13-20L160.13-20Q160.18-20.05 160.18-20.2L160.18-20.2Q160.18-20.55 159.38-20.55L159.38-20.55Q157.38-20.55 154.23-17.45 151.08-14.35 148.78-10.65 146.48-6.95 146.48-5.2L146.48-5.2Q146.48-4.5 147.08-4.5L147.08-4.5Q147.63-4.5 148.48-5.2L148.48-5.2Q149.23-5.85 150.5-7.03 151.78-8.2 154.88-12.05 157.98-15.9 160.13-20ZM137.68 14.4L137.68 14.4Q137.28 15 136.73 15.98 136.18 16.95 135.23 19.33 134.28 21.7 134.28 23.3L134.28 23.3Q134.28 24.15 134.58 24.15L134.58 24.15Q134.83 24.15 135.33 23.68 135.83 23.2 136.18 22.7L136.18 22.7 136.53 22.2Q140.73 15.7 147.13 3.85L147.13 3.85Q140.83 9.3 137.68 14.4Z" opacity="1" transform="matrix(1,0,0,1,0,0)" fill="#636365" class="slogan-text-1" data-fill-palette-color="secondary" id="text-1"></path></svg></g></svg></g></svg></g></svg></g><g transform="matrix(1,0,0,1,97.814214463674,0)"><svg viewBox="0 0 155.1011103358099 155.1011103358099" height="155.1011103358099" width="155.1011103358099"><g><svg></svg></g><g id="icon-0"><svg viewBox="0 0 155.1011103358099 155.1011103358099" height="155.1011103358099" width="155.1011103358099"><g><path d="M0 77.551c0-42.83 34.721-77.551 77.551-77.551 42.83 0 77.551 34.721 77.55 77.551 0 42.83-34.721 77.551-77.55 77.55-42.83 0-77.551-34.721-77.551-77.55zM77.551 132.946c30.594 0 55.396-24.801 55.395-55.395 0-30.594-24.801-55.396-55.395-55.396-30.594 0-55.396 24.801-55.396 55.396 0 30.594 24.801 55.396 55.396 55.395z" data-fill-palette-color="accent" fill="#636365" stroke="transparent"></path></g><g transform="matrix(1,0,0,1,75.33538053710414,75.52317505967817)"><svg viewBox="0 0 4.430349261601619 4.054760216453549" height="4.054760216453549" width="4.430349261601619"><g><svg xmlns="http://www.w3.org/2000/svg" data-name="Layer 1" viewBox="2.0476980337592487 4.569807513545163 59.93091990865342 54.85019248645484" x="0" y="0" height="4.054760216453549" width="4.430349261601619" class="icon-dxe-0" data-fill-palette-color="accent" id="dxe-0"><path d="M61.31 38.15A3.6 3.6 0 0 0 57.1 36.85 3.58 3.58 0 0 0 51.5 34.26L50.91 34.65A3.56 3.56 0 0 0 45.3 32.17C40.55 36.17 34.79 40.17 33.3 40.17 32.21 40.17 28.88 38.31 26.21 36.82 22.81 34.91 19.59 33.11 17.78 32.97 14.31 32.7 3.78 38.85 2.56 39.55A1 1 0 1 0 3.56 41.31C7.86 38.78 15.5 34.87 17.56 34.99 18.97 35.09 22.26 36.99 25.18 38.59 29.03 40.74 31.5 42.1 33.05 42.18A0.7 0.7 0 0 0 33.26 42.18H40.26A2.32 2.32 0 1 1 40.26 46.82H40.19C40.12 46.82 33.27 47.29 30.45 46.82 27.81 46.37 24.45 43.38 24.39 43.35A1 1 0 1 0 23.03 44.86C23.18 45 26.89 48.29 30.12 48.86A27 27 0 0 0 34.22 49.09C37.13 49.09 40.14 48.88 40.33 48.87A4.36 4.36 0 0 0 40.21 40.2H37.88A91 91 0 0 0 46.48 33.81 1.56 1.56 0 0 1 48.25 36.37H48.18L48.1 36.44 48.04 36.51 48 36.7V37.82A1 1 0 0 0 48.11 37.94L48.18 37.99 48.3 38.08H48.37L48.52 38.13H49.11A1.3 1.3 0 0 0 49.34 38.01L52.59 36A1.55 1.55 0 1 1 54.38 38.54L53.33 39.24A1.07 1.07 0 1 0 54.56 41L55.56 40.3 57.5 39A1.55 1.55 0 1 1 59.5 41.41L59.3 41.55C48.18 49.29 35.61 57.35 33.76 57.38 32.35 57.38 29.35 55.56 26.67 53.97 23.67 52.16 20.79 50.46 18.77 50.2 14.77 49.66 8.54 54.3 7.85 54.86A1 1 0 1 0 9.09 56.48C10.79 55.17 15.79 51.86 18.5 52.21 20.11 52.42 23.03 54.21 25.63 55.73 28.81 57.63 31.83 59.42 33.76 59.42 37.14 59.42 56.56 45.9 60.45 43.19L60.54 43.11A3.59 3.59 0 0 0 61.31 38.15" fill="#636365" data-fill-palette-color="accent"></path><path d="M25.25 19.43A7.43 7.43 0 1 0 17.84 12 7.43 7.43 0 0 0 25.25 19.43M25.25 6.62A5.38 5.38 0 1 1 19.87 12 5.38 5.38 0 0 1 25.25 6.62" fill="#636365" data-fill-palette-color="accent"></path><path d="M43.61 17.71A5.7 5.7 0 1 0 37.9 12 5.7 5.7 0 0 0 43.61 17.71M43.61 8.34A3.66 3.66 0 1 1 39.94 12 3.67 3.67 0 0 1 43.61 8.35Z" fill="#636365" data-fill-palette-color="accent"></path><path d="M26.74 27.89A7.42 7.42 0 1 0 34.16 20.47 7.43 7.43 0 0 0 26.74 27.89M34.16 22.51A5.38 5.38 0 1 1 28.78 27.89 5.38 5.38 0 0 1 34.16 22.51" fill="#636365" data-fill-palette-color="accent"></path></svg></g></svg></g></svg></g></svg></g><g></g></svg></g><defs></defs></svg><rect width="129.33524549463144" height="247.2" fill="none" stroke="none" visibility="hidden"></rect></g></svg></g></svg>