<svg xmlns="http://www.w3.org/2000/svg" version="1.1" xlink="http://www.w3.org/1999/xlink" xmlns:svgjs="http://svgjs.com/svgjs" width="100%" height="100%" viewBox="20.342998504638672 0 59.312992095947266 100"><g fill="#ffffff"><path d="M53.871 89.719c0 5.16-7.742 5.16-7.742 0s7.742-5.16 7.742 0"></path><path d="M67.691 0H32.308c-6.606.004-11.961 5.36-11.965 11.965v76.07c.004 6.606 5.36 11.961 11.965 11.965h35.383c6.606-.004 11.961-5.36 11.965-11.965v-76.07C79.652 5.36 74.296.004 67.691 0zM23.464 11.965a8.858 8.858 0 0 1 8.844-8.844H67.69a8.858 8.858 0 0 1 8.844 8.844v2.602h-53.07zm53.07 5.727v61.746h-53.07V17.692zm0 70.344a8.858 8.858 0 0 1-8.844 8.843H32.307a8.858 8.858 0 0 1-8.844-8.843v-5.477h53.07z"></path><path d="M54.684 7.285h-9.367a1.56 1.56 0 0 0 0 3.121h9.367a1.561 1.561 0 0 0 0-3.12z"></path></g></svg>