<svg xmlns="http://www.w3.org/2000/svg" version="1.1" xlink="http://www.w3.org/1999/xlink" xmlns:svgjs="http://svgjs.com/svgjs" width="100%" height="100%" viewBox="-1.0700000524520874 -38.099998474121094 345.92999267578125 38.849998474121094"><g fill="#404040"><path d="M4.43 -0.67C6.67 0.28 9.16 0.75 11.9 0.75C16.63 0.75 20.22 -0.46 22.65 -2.88C25.09 -5.3 26.31 -8.93 26.31 -13.77L26.31 -37.36L2.94 -37.36L2.94 -29.19L15.85 -29.19L15.85 -13.13C15.85 -11.35 15.45 -10 14.65 -9.07C13.85 -8.15 12.68 -7.68 11.15 -7.68C8.84 -7.68 6.69 -8.98 4.7 -11.58L-1.07 -4.75C0.36 -2.97 2.19 -1.61 4.43 -0.67Z M47.87 -13.56L58.54 0L70.82 0L54.75 -20.81L70.02 -37.36L58.38 -37.36L43.92 -21.83L43.92 -37.36L33.46 -37.36L33.46 0L43.92 0L43.92 -9.34Z M97.07 -28.98L97.07 0L107.64 0L107.64 -28.98L119.06 -28.98L119.06 -37.36L85.6 -37.36L85.6 -28.98Z M139.34 -9.93L146.12 0L157.43 0L149.37 -11.74C151.72 -12.88 153.53 -14.45 154.79 -16.46C156.05 -18.47 156.69 -20.83 156.69 -23.53C156.69 -26.35 156.01 -28.79 154.66 -30.87C153.31 -32.95 151.38 -34.56 148.89 -35.68C146.4 -36.8 143.47 -37.36 140.09 -37.36L123.01 -37.36L123.01 0L133.58 0L133.58 -9.93ZM144.36 -27.59C145.46 -26.63 146.01 -25.28 146.01 -23.53C146.01 -21.79 145.46 -20.45 144.36 -19.51C143.25 -18.56 141.62 -18.09 139.45 -18.09L133.58 -18.09L133.58 -29.03L139.45 -29.03C141.62 -29.03 143.25 -28.55 144.36 -27.59Z M187.53 -7.26L190.47 0L201.46 0L184.92 -37.36L174.51 -37.36L158.02 0L168.8 0L171.73 -7.26ZM184.44 -15.05L174.83 -15.05L179.63 -27Z M204.45 -37.36L204.45 0L222.11 0C226.2 0 229.83 -0.76 233 -2.29C236.17 -3.82 238.62 -5.99 240.36 -8.81C242.11 -11.62 242.98 -14.91 242.98 -18.68C242.98 -22.45 242.11 -25.74 240.36 -28.55C238.62 -31.36 236.17 -33.53 233 -35.06C229.83 -36.59 226.2 -37.36 222.11 -37.36ZM221.69 -8.43L215.01 -8.43L215.01 -28.92L221.69 -28.92C224.89 -28.92 227.46 -28.02 229.4 -26.2C231.34 -24.39 232.31 -21.88 232.31 -18.68C232.31 -15.48 231.34 -12.97 229.4 -11.15C227.46 -9.34 224.89 -8.43 221.69 -8.43Z M248.53 -37.36L248.53 0L259.1 0L259.1 -37.36Z M302.16 -37.36L291.81 -37.36L291.81 -17.45L275.32 -37.36L266.62 -37.36L266.62 0L276.97 0L276.97 -19.91L293.46 0L302.16 0Z M334.66 -19.48L334.66 -9.23C332.88 -8.41 330.98 -8.01 328.95 -8.01C326.89 -8.01 325.06 -8.46 323.46 -9.37C321.86 -10.27 320.61 -11.54 319.72 -13.15C318.83 -14.77 318.39 -16.61 318.39 -18.68C318.39 -21.92 319.36 -24.5 321.32 -26.44C323.28 -28.38 325.86 -29.35 329.06 -29.35C332.58 -29.35 335.61 -27.96 338.13 -25.19L344.86 -31.27C343.01 -33.48 340.69 -35.17 337.92 -36.34C335.14 -37.52 332.01 -38.1 328.53 -38.1C324.54 -38.1 320.97 -37.28 317.8 -35.62C314.63 -33.97 312.16 -31.66 310.38 -28.71C308.6 -25.76 307.71 -22.41 307.71 -18.68C307.71 -14.94 308.6 -11.6 310.38 -8.65C312.16 -5.69 314.62 -3.39 317.75 -1.73C320.88 -0.08 324.4 0.75 328.31 0.75C331.09 0.75 333.86 0.34 336.64 -0.48C339.41 -1.3 341.87 -2.47 344 -4L344 -19.48Z"></path></g></svg>